<?xml version="1.0" encoding="utf-8"?>
<!-- Generator: Adobe Illustrator 18.0.0, SVG Export Plug-In . SVG Version: 6.00 Build 0)  -->
<!DOCTYPE svg PUBLIC "-//W3C//DTD SVG 1.1//EN" "http://www.w3.org/Graphics/SVG/1.1/DTD/svg11.dtd">
<svg version="1.1" id="图层_1" xmlns="http://www.w3.org/2000/svg" xmlns:xlink="http://www.w3.org/1999/xlink" x="0px" y="0px"
	 viewBox="0 0 14 14" enable-background="new 0 0 14 14" xml:space="preserve">
<path fill="#555555" d="M-62.5-0.5C-62.6-0.8-62.6-0.6-62.5-0.5C-62.6-0.6-62.6-0.6-62.5-0.5z"/>
<path fill="#555555" d="M-62.5-0.2c0-0.1,0-0.2,0-0.3C-62.5-0.4-62.5-0.3-62.5-0.2C-62.5-0.3-62.5-0.3-62.5-0.2z"/>
<path fill="#555555" d="M-62.5,0.1c0-0.1,0-0.2,0-0.3C-62.5-0.1-62.5,0-62.5,0.1C-62.5,0-62.5,0.1-62.5,0.1z"/>
<polygon fill="#228FD4" points="-3.2,-3.9 -3.1,-3.9 -3.1,-3.9 "/>
<g>
	<path fill="#FFFFFF" d="M11.2,1.4H9.5v-1C9.5,0.2,9.3,0,9,0C8.8,0,8.6,0.2,8.6,0.5v1h-3v-1C5.5,0.2,5.3,0,5,0
		C4.8,0,4.6,0.2,4.6,0.5v1H2.9c-1.2,0-2.1,1-2.1,2.1v8.3c0,1.2,1,2.1,2.1,2.1h8.3c1.2,0,2.1-1,2.1-2.1V3.6
		C13.3,2.4,12.4,1.4,11.2,1.4z M12.3,11.8c0,0.6-0.5,1.2-1.2,1.2H2.9c-0.6,0-1.2-0.5-1.2-1.2V3.6c0-0.6,0.5-1.2,1.2-1.2h1.6v0.9
		c0,0.3,0.2,0.5,0.5,0.5s0.5-0.2,0.5-0.5V2.4h3v0.9c0,0.3,0.2,0.5,0.5,0.5s0.5-0.2,0.5-0.5V2.4h1.6c0.6,0,1.2,0.5,1.2,1.2V11.8z"/>
	<path fill="#FFFFFF" d="M11,6.2H3.2c-0.3,0-0.5,0.2-0.5,0.5s0.2,0.5,0.5,0.5H11c0.3,0,0.5-0.2,0.5-0.5S11.2,6.2,11,6.2z"/>
	<path fill="#FFFFFF" d="M7.4,9.4H3.2c-0.3,0-0.5,0.2-0.5,0.5s0.2,0.5,0.5,0.5h4.2c0.3,0,0.5-0.2,0.5-0.5C7.9,9.7,7.7,9.4,7.4,9.4z"
		/>
</g>
</svg>
