<?xml version="1.0" encoding="utf-8"?>
<!-- Generator: Adobe Illustrator 18.0.0, SVG Export Plug-In . SVG Version: 6.00 Build 0)  -->
<!DOCTYPE svg PUBLIC "-//W3C//DTD SVG 1.1//EN" "http://www.w3.org/Graphics/SVG/1.1/DTD/svg11.dtd">
<svg version="1.1" id="图层_1" xmlns="http://www.w3.org/2000/svg" xmlns:xlink="http://www.w3.org/1999/xlink" x="0px" y="0px"
	 viewBox="0 0 14 14" enable-background="new 0 0 14 14" xml:space="preserve">
<path fill="#555555" d="M-67-9.1C-67.1-9.1-67.1-9.1-67-9.1L-67-9.1z"/>
<path fill="#555555" d="M-66.5-8.6c-0.1,0-0.1-0.1-0.2-0.1C-66.6-8.7-66.6-8.6-66.5-8.6z"/>
<path fill="#555555" d="M-67.1-9.1C-67-9.1-67.2-9.2-67.1-9.1L-67.1-9.1z"/>
<path fill="#555555" d="M-66.5-8.6c-0.1,0-0.1-0.1-0.2-0.1C-66.6-8.7-66.6-8.6-66.5-8.6z"/>
<path fill="#555555" d="M-62.5-0.5C-62.6-0.8-62.6-0.6-62.5-0.5C-62.6-0.6-62.6-0.6-62.5-0.5z"/>
<path fill="#555555" d="M-62.5-0.2c0-0.1,0-0.2,0-0.3C-62.5-0.4-62.5-0.3-62.5-0.2C-62.5-0.3-62.5-0.3-62.5-0.2z"/>
<path fill="#555555" d="M-62.5,0.1c0-0.1,0-0.2,0-0.3C-62.5-0.1-62.5,0-62.5,0.1C-62.5,0-62.5,0.1-62.5,0.1z"/>
<g>
	<path fill="#FFFFFF" d="M10.4,6.5h-1L8.7,5.7L7.4,4.4C7.3,4.3,7.1,4.2,7,4.2c-0.2,0-0.3,0.1-0.4,0.2L5.3,5.7L4.5,6.5h-1
		C3.2,6.5,2.9,6.7,2.9,7s0.3,0.5,0.6,0.5h1.2c0.1,0,0.1,0,0.2,0c0.2,0,0.3-0.1,0.4-0.3L7,5.6l1.6,1.7C8.7,7.4,8.9,7.5,9,7.6
		c0.1,0,0.1,0,0.2,0h1.2c0.3,0,0.6-0.2,0.6-0.5S10.8,6.5,10.4,6.5z"/>
	<path fill="#FFFFFF" d="M13.5,0.3C13.6,0.4,13.6,0.4,13.5,0.3C13.6,0.4,13.6,0.4,13.5,0.3z"/>
	<path fill="#FFFFFF" d="M13.6,0.4L13.6,0.4C13.6,0.4,13.7,0.5,13.6,0.4C13.7,0.5,13.6,0.4,13.6,0.4z"/>
	<path fill="#FFFFFF" d="M0.1,0.8C0.1,0.9,0,1.1,0,1.2c0,0.2,0,0.4,0,0.5v8.7c0,0.3,0,0.7,0.2,1C0.5,11.8,1,12,1.5,12h3.9
		c0.1,0,0.1,0,0.1,0l0,0h0.3h6.8c0.4,0,0.7-0.1,1-0.4c0.3-0.3,0.4-0.6,0.4-1V1.4c0-0.1,0-0.2,0-0.3l0,0l0,0c0-0.1,0-0.1,0,0
		C13.8,0.4,13.3,0,12.6,0h-11C1.5,0,1.4,0,1.3,0C0.8,0,0.3,0.4,0.1,0.8 M12.4,1.1L12.4,1.1L12.4,1.1L12.4,1.1z M12.5,1.1L12.5,1.1
		L12.5,1.1z M12.4,1.1L12.4,1.1L12.4,1.1z M1.7,1.1L1.7,1.1L1.7,1.1z M12.8,10.2c0,0.2,0,0.4-0.1,0.5s-0.3,0.2-0.5,0.2H5.8H5.5H1.8
		c-0.4,0-0.7-0.3-0.7-0.7V3.8l0,0v-2c0-0.2,0.1-0.5,0.3-0.6C1.5,1.1,1.7,1,1.8,1h7.5c0.1,0,2.9,0,3,0c0,0,0,0-0.1,0l0,0
		c0.2,0,0.4,0.1,0.5,0.3l0,0l0,0c0.1,0.1,0.1,0.2,0.1,0.4v2l0,0V10.2L12.8,10.2z M12.3,1.1L12.3,1.1L12.3,1.1z"/>
	<path fill="#FFFFFF" d="M0.4,0.4C0.4,0.4,0.3,0.5,0.4,0.4C0.3,0.5,0.4,0.4,0.4,0.4L0.4,0.4z"/>
	<path fill="#FFFFFF" d="M0.4,0.4C0.4,0.4,0.5,0.3,0.4,0.4C0.5,0.3,0.4,0.4,0.4,0.4z"/>
	<path fill="#FFFFFF" d="M0.5,0.3L0.5,0.3L0.5,0.3z"/>
	<path fill="#FFFFFF" d="M13.9,0.9C13.9,1,13.9,1,13.9,0.9C13.9,1,13.9,1,13.9,0.9z"/>
	<path fill="#FFFFFF" d="M9.2,12.9H4.8c-0.3,0-0.5,0.2-0.5,0.5s0.2,0.5,0.5,0.5h4.4c0.3,0,0.5-0.2,0.5-0.5
		C9.8,13.2,9.5,12.9,9.2,12.9z"/>
</g>
</svg>
