<?xml version="1.0" encoding="utf-8"?>
<!-- Generator: Adobe Illustrator 18.0.0, SVG Export Plug-In . SVG Version: 6.00 Build 0)  -->
<!DOCTYPE svg PUBLIC "-//W3C//DTD SVG 1.1//EN" "http://www.w3.org/Graphics/SVG/1.1/DTD/svg11.dtd">
<svg version="1.1" id="图层_1" xmlns="http://www.w3.org/2000/svg" xmlns:xlink="http://www.w3.org/1999/xlink" x="0px" y="0px"
	 viewBox="0 0 14 14" enable-background="new 0 0 14 14" xml:space="preserve">
<g>
	<path fill="#FFFFFF" d="M12.4,0H1.6C0.7,0,0,0.7,0,1.6v10.7c0,1,0.7,1.7,1.6,1.7h10.7c0.9,0,1.6-0.7,1.6-1.6V1.6
		C14,0.7,13.3,0,12.4,0L12.4,0z M13,12.4c0,0.2-0.1,0.4-0.2,0.5c-0.1,0.1-0.3,0.2-0.5,0.2H1.6c-0.2,0-0.4-0.1-0.5-0.2
		c-0.1-0.1-0.2-0.3-0.2-0.5V1.6c0-0.2,0.1-0.4,0.2-0.5C1.3,1,1.4,0.9,1.6,0.9h10.7c0.2,0,0.4,0.1,0.5,0.2C13,1.3,13.1,1.4,13,1.6
		V12.4z"/>
	<rect y="3.9" fill="#FFFFFF" width="13.5" height="1.2"/>
	<rect x="8.1" y="10" fill="#FFFFFF" width="5.1" height="1.2"/>
	<rect y="10" fill="#FFFFFF" width="4.2" height="1.2"/>
	<g>
		<path fill="#FFFFFF" d="M7.7,10H6.5c-1.4,0-2.6-1.2-2.6-2.6V4h6.5v3.4C10.3,8.8,9.1,10,7.7,10z M5.1,5.2v2.2
			c0,0.8,0.6,1.4,1.4,1.4h1.3c0.8,0,1.4-0.6,1.4-1.4V5.2H5.1z"/>
	</g>
</g>
</svg>
