<?xml version="1.0" encoding="utf-8"?>
<!-- Generator: Adobe Illustrator 18.0.0, SVG Export Plug-In . SVG Version: 6.00 Build 0)  -->
<!DOCTYPE svg PUBLIC "-//W3C//DTD SVG 1.1//EN" "http://www.w3.org/Graphics/SVG/1.1/DTD/svg11.dtd">
<svg version="1.1" id="图层_1" xmlns="http://www.w3.org/2000/svg" xmlns:xlink="http://www.w3.org/1999/xlink" x="0px" y="0px"
	 viewBox="0 0 20 20" enable-background="new 0 0 20 20" xml:space="preserve">
<g>
	<g>
		<path fill="#58C7CB" d="M17.9,7.6c-0.1,0-0.2,0-0.3,0C16.8,5,14.7,3,12.1,2.3c0-0.1,0-0.1,0-0.2C12.1,1,11.2,0,10,0
			C8.8,0,7.9,1,7.9,2.1c0,0.1,0,0.1,0,0.2C5.3,3,3.2,5,2.4,7.7c-0.1,0-0.2,0-0.3,0C0.9,7.6,0,8.6,0,9.8c0,1.2,0.9,2.1,2.1,2.1
			c0,0,0.1,0,0.1,0c0.7,2.8,2.9,5.1,5.7,5.8c0,0,0,0.1,0,0.1C7.9,19,8.8,20,10,20c1.2,0,2.1-1,2.1-2.1c0,0,0-0.1,0-0.1
			c2.8-0.8,5-3,5.7-5.8c0,0,0.1,0,0.1,0c1.2,0,2.1-1,2.1-2.1C20,8.6,19.1,7.6,17.9,7.6z M10,16v-5H6l4-6v6h4L10,16z"/>
	</g>
</g>
</svg>
