<?xml version="1.0" encoding="utf-8"?>
<!-- Generator: Adobe Illustrator 18.0.0, SVG Export Plug-In . SVG Version: 6.00 Build 0)  -->
<!DOCTYPE svg PUBLIC "-//W3C//DTD SVG 1.1//EN" "http://www.w3.org/Graphics/SVG/1.1/DTD/svg11.dtd">
<svg version="1.1" id="图层_1" xmlns="http://www.w3.org/2000/svg" xmlns:xlink="http://www.w3.org/1999/xlink" x="0px" y="0px"
	 viewBox="0 0 14 14" enable-background="new 0 0 14 14" xml:space="preserve">
<path fill="#FFFFFF" d="M13.9,12.9L7.5,0.3c-0.2-0.4-0.8-0.4-1,0L0.1,13c-0.1,0.2-0.1,0.4,0,0.6c0.1,0.2,0.3,0.3,0.5,0.3h12.8l0,0
	c0.3,0,0.6-0.3,0.6-0.6C14,13.1,14,13,13.9,12.9z M1.7,12.7L7,1.8l5.4,10.9H1.7z"/>
<path fill="#FFFFFF" d="M6.4,5.1v4.1c0,0.3,0.3,0.6,0.7,0.6c0.3,0,0.7-0.3,0.7-0.6V5.1c0-0.3-0.2-0.6-0.7-0.6
	C6.7,4.5,6.4,4.8,6.4,5.1z"/>
<ellipse fill="#FFFFFF" cx="7.1" cy="11.1" rx="0.7" ry="0.6"/>
</svg>
