<?xml version="1.0" encoding="utf-8"?>
<!-- Generator: Adobe Illustrator 18.0.0, SVG Export Plug-In . SVG Version: 6.00 Build 0)  -->
<!DOCTYPE svg PUBLIC "-//W3C//DTD SVG 1.1//EN" "http://www.w3.org/Graphics/SVG/1.1/DTD/svg11.dtd">
<svg version="1.1" id="图层_1" xmlns="http://www.w3.org/2000/svg" xmlns:xlink="http://www.w3.org/1999/xlink" x="0px" y="0px"
	 viewBox="0 0 14 14" enable-background="new 0 0 14 14" xml:space="preserve">
<path fill="#555555" d="M-62.5-0.5C-62.6-0.8-62.6-0.6-62.5-0.5C-62.6-0.6-62.6-0.6-62.5-0.5z"/>
<path fill="#555555" d="M-62.5-0.2c0-0.1,0-0.2,0-0.3C-62.5-0.4-62.5-0.3-62.5-0.2C-62.5-0.3-62.5-0.3-62.5-0.2z"/>
<path fill="#555555" d="M-62.5,0.1c0-0.1,0-0.2,0-0.3C-62.5-0.1-62.5,0-62.5,0.1C-62.5,0-62.5,0.1-62.5,0.1z"/>
<polygon fill="#228FD4" points="-3.2,-3.9 -3.1,-3.9 -3.1,-3.9 "/>
<g>
	<path fill="#FFFFFF" d="M11.9,14c-0.6,0-1.1-0.2-1.5-0.6l-1.8-1.8C8,11.7,7.1,12,6.1,12.1c-1.7,0.1-3.2-0.6-4.4-1.8
		C0.6,9.1,0,7.6,0,6c0-0.7,0.1-1.4,0.3-2c0.1-0.2,0.2-0.3,0.4-0.4c0.2,0,0.4,0,0.5,0.2l1.4,1.4c0.7,0.7,1.9,0.7,2.5,0
		c0.3-0.3,0.5-0.8,0.5-1.3S5.5,3,5.2,2.7L3.8,1.3C3.7,1.1,3.6,0.9,3.7,0.8c0-0.2,0.2-0.3,0.4-0.4C4.7,0.1,5.3,0,6,0c3.3,0,6,2.7,6,6
		c0,0.9-0.2,1.7-0.5,2.5l1.8,1.8c0.4,0.4,0.6,0.9,0.6,1.5s-0.2,1.1-0.6,1.5C13,13.8,12.4,14,11.9,14z M8.7,10.3
		c0.1,0,0.3,0.1,0.4,0.2l2.1,2.1c0.4,0.4,1,0.4,1.4,0c0.2-0.2,0.3-0.4,0.3-0.7s-0.1-0.5-0.3-0.7L10.4,9c-0.2-0.2-0.2-0.5-0.1-0.7
		c0.4-0.7,0.6-1.5,0.6-2.3c0-2.7-2.2-4.9-4.9-4.9c-0.2,0-0.5,0-0.7,0L6,1.8c0.6,0.6,0.9,1.3,0.9,2.1S6.6,5.4,6,6
		C4.9,7.1,3,7.1,1.9,6L1.2,5.3c0,0.2,0,0.5,0,0.7c0,1.3,0.5,2.5,1.4,3.4c0.9,1,2.2,1.5,3.5,1.4s2.4-0.6,2.4-0.6
		C8.5,10.3,8.6,10.3,8.7,10.3z"/>
</g>
</svg>
