<?xml version="1.0" encoding="utf-8"?>
<!-- Generator: Adobe Illustrator 18.0.0, SVG Export Plug-In . SVG Version: 6.00 Build 0)  -->
<!DOCTYPE svg PUBLIC "-//W3C//DTD SVG 1.1//EN" "http://www.w3.org/Graphics/SVG/1.1/DTD/svg11.dtd">
<svg version="1.1" id="图层_1" xmlns="http://www.w3.org/2000/svg" xmlns:xlink="http://www.w3.org/1999/xlink" x="0px" y="0px"
	 viewBox="0 0 14 14" enable-background="new 0 0 14 14" xml:space="preserve">
<g>
	<g>
		<path fill="#FFFFFF" d="M7.4,0.1l4.9,1.5c0.6,0.2,1,0.7,1,1.3v6.9c0,0.5-0.3,0.9-0.7,1.2l-4.9,2.9c-0.4,0.2-0.9,0.2-1.4,0L1.4,11
			C1,10.7,0.8,10.3,0.8,9.8V2.9c0-0.6,0.4-1.1,1-1.3l4.9-1.5C6.9,0,7.1,0,7.4,0.1L7.4,0.1z M12.3,4.9v-2c0-0.2-0.1-0.4-0.3-0.4
			L7.1,0.9c-0.1,0-0.2,0-0.3,0l0,0L2,2.4l0,0C1.8,2.5,1.7,2.7,1.7,2.9l0,2l0,0.9v4c0,0.2,0.1,0.3,0.2,0.4l4.9,2.9
			c0.1,0.1,0.3,0.1,0.5,0l4.9-2.9c0.1-0.1,0.2-0.2,0.2-0.4l0-4l0,0L12.3,4.9z M10.1,5.1c0.1,0.1,0.1,0.2,0.1,0.3
			c0,0.1-0.1,0.2-0.1,0.3L6.7,9.1C6.5,9.3,6.2,9.3,6,9.1L4.3,7.5C4.2,7.4,4.2,7.2,4.2,7.1c0-0.1,0.1-0.2,0.1-0.3
			c0.2-0.2,0.5-0.2,0.7,0l1.3,1.3l3.1-3C9.6,4.9,9.9,4.9,10.1,5.1L10.1,5.1z M6.9,0.9"/>
	</g>
</g>
</svg>
