<?xml version="1.0" encoding="utf-8"?>
<!-- Generator: Adobe Illustrator 18.0.0, SVG Export Plug-In . SVG Version: 6.00 Build 0)  -->
<!DOCTYPE svg PUBLIC "-//W3C//DTD SVG 1.1//EN" "http://www.w3.org/Graphics/SVG/1.1/DTD/svg11.dtd">
<svg version="1.1" id="图层_1" xmlns="http://www.w3.org/2000/svg" xmlns:xlink="http://www.w3.org/1999/xlink" x="0px" y="0px"
	 viewBox="0 0 14 14" enable-background="new 0 0 14 14" xml:space="preserve">
<path fill="#555555" d="M-62.5-0.5C-62.6-0.8-62.6-0.6-62.5-0.5C-62.6-0.6-62.6-0.6-62.5-0.5z"/>
<path fill="#555555" d="M-62.5-0.2c0-0.1,0-0.2,0-0.3C-62.5-0.4-62.5-0.3-62.5-0.2C-62.5-0.3-62.5-0.3-62.5-0.2z"/>
<path fill="#555555" d="M-62.5,0.1c0-0.1,0-0.2,0-0.3C-62.5-0.1-62.5,0-62.5,0.1C-62.5,0-62.5,0.1-62.5,0.1z"/>
<polygon fill="#228FD4" points="-3.2,-3.9 -3.1,-3.9 -3.1,-3.9 "/>
<path fill="#FFFFFF" d="M13.6,6.9c-0.2-0.3-0.7-0.5-1.1-0.5c-0.8,0-1.4,0.5-1.5,1.2c-0.3,2-2,3.4-4,3.4c-2.2,0-4-1.8-4-4
	c0-2,1.4-3.7,3.4-3.9c0.6-0.2,1-0.6,1.1-1.2h4c0.3,0,0.6-0.3,0.6-0.6s-0.3-0.6-0.6-0.6H7.3C7,0.3,6.5,0,5.9,0.1C2.4,0.6,0,3.6,0,7.1
	c0,3.7,3.1,6.8,7,6.9c3.5,0,6.4-2.5,7-5.9C14,7.7,13.9,7.3,13.6,6.9z M7,12.8L7,12.8c-3.2,0-5.9-2.7-5.9-5.8c0-2.9,2-5.4,5-5.9
	c0.2,0,0.4,0.1,0.4,0.4C6.4,1.7,6.2,1.7,6,1.7C3.5,2.1,1.7,4.3,1.7,6.8c0,2.8,2.4,5.2,5.2,5.2c2.5,0,4.7-1.8,5.1-4.3
	c0.1-0.3,0.5-0.4,0.7-0.2c0.1,0.1,0.1,0.2,0.1,0.3C12.4,10.7,9.9,12.8,7,12.8z"/>
</svg>
