<?xml version="1.0" encoding="utf-8"?>
<!-- Generator: Adobe Illustrator 18.0.0, SVG Export Plug-In . SVG Version: 6.00 Build 0)  -->
<!DOCTYPE svg PUBLIC "-//W3C//DTD SVG 1.1//EN" "http://www.w3.org/Graphics/SVG/1.1/DTD/svg11.dtd">
<svg version="1.1" id="图层_1" xmlns="http://www.w3.org/2000/svg" xmlns:xlink="http://www.w3.org/1999/xlink" x="0px" y="0px"
	 viewBox="0 0 20 20" enable-background="new 0 0 20 20" xml:space="preserve">
<g>
	<g>
		<path fill="#E54D4A" d="M19,18H2V1c0-0.6-0.4-1-1-1C0.4,0,0,0.4,0,1v18c0,0.6,0.4,1,1,1h18c0.6,0,1-0.4,1-1C20,18.4,19.6,18,19,18
			z M4,16c0.3,0,0.6-0.1,0.8-0.4l3.4-4.5l3.2,2.6c0.4,0.3,1,0.3,1.4-0.2l4.1-6l2,1.7c0.1,0,0.1,0.1,0.2,0.1c0,0,0.1,0,0.1,0
			c0.1-0.1,0.2-0.2,0.2-0.3L20,2.4c0-0.1,0-0.2-0.1-0.3C19.8,2,19.7,2,19.6,2l-5.5,2.4c-0.1,0-0.2,0.2-0.2,0.3c0,0.1,0,0.3,0.1,0.3
			l1.4,1.1l-3.6,5.2L8.6,8.7c-0.4-0.3-1-0.3-1.3,0.2l-4,5.3c-0.3,0.5-0.3,1.1,0.1,1.5C3.5,15.9,3.8,16,4,16z"/>
	</g>
</g>
</svg>
