<?xml version="1.0" encoding="utf-8"?>
<!-- Generator: Adobe Illustrator 18.0.0, SVG Export Plug-In . SVG Version: 6.00 Build 0)  -->
<!DOCTYPE svg PUBLIC "-//W3C//DTD SVG 1.1//EN" "http://www.w3.org/Graphics/SVG/1.1/DTD/svg11.dtd">
<svg version="1.1" id="图层_1" xmlns="http://www.w3.org/2000/svg" xmlns:xlink="http://www.w3.org/1999/xlink" x="0px" y="0px"
	 viewBox="0 0 20 20" enable-background="new 0 0 20 20" xml:space="preserve">
<path fill="#57A45A" d="M19.8,8.5l-9.3-8.3C10.4,0.1,10.2,0,10.1,0C9.9,0,9.7,0.1,9.6,0.2L0.2,8.5C0,8.7,0,9,0.1,9.2
	c0.1,0.2,0.4,0.4,0.6,0.4h1.6v9.7c0,0.3,0.3,0.6,0.6,0.6h3.8c0.4,0,0.6-0.3,0.6-0.6v-6.5c0-0.3,0.3-0.6,0.6-0.6h3.8
	c0.4,0,0.6,0.3,0.6,0.6v6.5c0,0.2,0.1,0.3,0.2,0.4c0.1,0.1,0.3,0.2,0.5,0.2H17c0.4,0,0.6-0.3,0.6-0.6V9.6h1.6c0.3,0,0.5-0.2,0.6-0.4
	C20,9,20,8.7,19.8,8.5L19.8,8.5z M19.8,8.5"/>
</svg>
