<?xml version="1.0" encoding="utf-8"?>
<!-- Generator: Adobe Illustrator 18.0.0, SVG Export Plug-In . SVG Version: 6.00 Build 0)  -->
<!DOCTYPE svg PUBLIC "-//W3C//DTD SVG 1.1//EN" "http://www.w3.org/Graphics/SVG/1.1/DTD/svg11.dtd">
<svg version="1.1" id="图层_1" xmlns="http://www.w3.org/2000/svg" xmlns:xlink="http://www.w3.org/1999/xlink" x="0px" y="0px"
	 viewBox="0 0 20 20" enable-background="new 0 0 20 20" xml:space="preserve">
<g>
	<g>
		<path fill="#8A54D8" d="M19.4,4.6l-8.8-4.4C10.4,0,10.2,0,10,0C9.8,0,9.6,0,9.4,0.1L0.6,4.6C0.2,4.8,0,5.1,0,5.6v8.9
			c0,0.4,0.2,0.8,0.6,1l8.7,4.4c0.3,0,0.4,0.1,0.6,0.1c0.3,0,0.4,0,0.6-0.1l8.8-4.4c0.4-0.2,0.6-0.6,0.6-1V5.6
			C20,5.1,19.7,4.8,19.4,4.6z M10,15v-5H6l4-6v6h4L10,15z"/>
	</g>
</g>
</svg>
