<?xml version="1.0" encoding="utf-8"?>
<!-- Generator: Adobe Illustrator 18.0.0, SVG Export Plug-In . SVG Version: 6.00 Build 0)  -->
<!DOCTYPE svg PUBLIC "-//W3C//DTD SVG 1.1//EN" "http://www.w3.org/Graphics/SVG/1.1/DTD/svg11.dtd">
<svg version="1.1" id="图层_1" xmlns="http://www.w3.org/2000/svg" xmlns:xlink="http://www.w3.org/1999/xlink" x="0px" y="0px"
	 viewBox="0 0 20 20" enable-background="new 0 0 20 20" xml:space="preserve">
<g>
	<g>
		<path fill="#E54D4A" d="M19.2,4.7c1.1-1.1,1.1-2.8,0-3.9c-1.1-1.1-2.9-1.1-3.9,0c-1.1,1.1-1.1,2.8,0,3.9l0.1,0l-1.6,4.7
			c-0.5,0.1-1,0.4-1.5,0.8c0,0,0,0,0,0L7,7.1c0.1-0.3,0.1-0.5,0.1-0.8c0-1.5-1.2-2.8-2.8-2.8S1.6,4.7,1.6,6.3c0,0.9,0.4,1.7,1.1,2.2
			l-0.4,6.1C1,14.7,0,15.9,0,17.2C0,18.8,1.2,20,2.8,20c1.5,0,2.8-1.2,2.8-2.8c0-1-0.5-1.9-1.3-2.4L4.7,9c0.4,0,0.7-0.1,1-0.3
			l5.8,3.6c0,0.7,0.3,1.4,0.8,1.9c0.5,0.5,1.3,0.8,2,0.8c0.7,0,1.4-0.3,2-0.8c0.5-0.5,0.8-1.2,0.8-2c0-0.7-0.3-1.4-0.8-2
			c-0.1-0.1-0.3-0.2-0.4-0.3l1.4-4.3C18,5.5,18.7,5.3,19.2,4.7z"/>
	</g>
</g>
</svg>
