<?xml version="1.0" encoding="utf-8"?>
<!-- Generator: Adobe Illustrator 18.0.0, SVG Export Plug-In . SVG Version: 6.00 Build 0)  -->
<!DOCTYPE svg PUBLIC "-//W3C//DTD SVG 1.1//EN" "http://www.w3.org/Graphics/SVG/1.1/DTD/svg11.dtd">
<svg version="1.1" id="图层_1" xmlns="http://www.w3.org/2000/svg" xmlns:xlink="http://www.w3.org/1999/xlink" x="0px" y="0px"
	 viewBox="0 0 20 20" enable-background="new 0 0 20 20" xml:space="preserve">
<g>
	<g>
		<path fill="#58C7CB" d="M20,4.5c0.1-0.1-0.3-1.3-0.4-1.4c-0.1-0.1-1.3,0.3-1.5,0.1C18,3,17.8,2.8,17.7,2.6c0,0,0,0,0-0.1
			c-0.1-0.3,0.6-1.3,0.6-1.4c0-0.1-1.1-0.7-1.2-0.7c-0.1,0-0.6,1.1-0.9,1.1c0,0-0.1,0-0.1,0c-0.3-0.1-0.6-0.1-0.9-0.1
			c-0.3-0.2-0.5-1.3-0.6-1.4C14.3,0,13.1,0.3,13,0.4c-0.1,0.1,0.4,1.4,0.1,1.5c0,0,0,0,0,0c-0.3,0.2-0.5,0.3-0.7,0.5
			c-0.3,0-1.3-0.6-1.4-0.6c-0.1,0-0.7,1.1-0.7,1.2c0,0.1,1.1,0.7,1.1,0.9c-0.1,0.3-0.1,0.7-0.1,1.1C11.1,5.4,10,5.6,10,5.7
			C9.9,5.8,10.3,7,10.4,7c0.1,0.1,1.4-0.4,1.5-0.1c0,0,0,0,0,0c0.2,0.3,0.4,0.5,0.6,0.7c0,0.2-0.1,0.4-0.3,0.7
			c-0.4-0.4-0.9-0.9-1-0.9c-0.1,0-1.3,1.3-1.7,1.2C9.2,8.5,8.9,8.3,8.5,8.2c0,0-0.1,0-0.1,0c-0.3-0.3-0.2-2-0.3-2.1
			C8,6,6.2,6,6.1,6.1c-0.1,0.1,0,1.7-0.3,2c0,0-0.1,0-0.1,0C5.3,8.3,4.9,8.4,4.5,8.6C4.1,8.6,3,7.4,2.8,7.4c-0.2,0-1.4,1.3-1.4,1.4
			c0,0.2,1.5,1.5,1.2,1.8c0,0,0,0,0,0c-0.2,0.4-0.4,0.7-0.5,1.1c-0.4,0.3-1.9,0.2-2,0.3c-0.1,0.1-0.1,1.9,0,2c0.1,0.1,1.8,0,2,0.3
			c0.1,0.5,0.3,0.9,0.6,1.4c-0.2,0.5-1.2,1.4-1.2,1.6c0,0.2,1.3,1.4,1.4,1.4c0.2,0,1.5-1.5,1.8-1.2c0,0,0,0,0,0
			C5,17.7,5.4,17.9,5.9,18c0.2,0.5,0.1,1.9,0.2,2c0.1,0.1,1.9,0.1,2,0c0.1-0.1,0-1.8,0.3-2c0.4-0.1,0.8-0.3,1.2-0.5
			c0.5,0.2,1.4,1.2,1.6,1.2c0.2,0,1.4-1.3,1.4-1.4c0-0.1-1.2-1.2-1.2-1.6c0.2-0.4,0.4-0.8,0.5-1.3c0.4-0.2,1.9-0.2,2-0.2
			c0.1-0.1,0.1-1.9,0-2c-0.1-0.1-1.8,0-2-0.3c-0.1-0.4-0.3-0.7-0.4-1.1c0-0.3,0.6-0.9,0.9-1.3c0.3,0.2,0.7,0.4,0.8,0.4
			c0.1,0,0.6-1.1,0.9-1.1c0.3,0.1,0.6,0.1,0.9,0.1c0.2,0.3,0.5,1.3,0.5,1.3c0.1,0.1,1.3-0.3,1.4-0.4c0.1-0.1-0.3-1.2-0.2-1.4
			c0.3-0.2,0.6-0.4,0.8-0.6c0.4,0,1.2,0.6,1.3,0.6c0.1,0,0.8-1.1,0.7-1.2c0-0.1-1.1-0.7-1.1-0.9c0.1-0.3,0.1-0.6,0.1-0.8
			C18.8,4.8,19.9,4.6,20,4.5z M7,15c-1.1,0-2-0.9-2-2s0.9-2,2-2c1.1,0,2,0.9,2,2S8.1,15,7,15z M15.9,5.5C15.6,6,15,6.1,14.5,5.9
			C14,5.6,13.8,5,14.1,4.5C14.4,4,15,3.8,15.5,4.1C16,4.4,16.1,5,15.9,5.5z"/>
	</g>
</g>
</svg>
