<?xml version="1.0" encoding="utf-8"?>
<!-- Generator: Adobe Illustrator 18.0.0, SVG Export Plug-In . SVG Version: 6.00 Build 0)  -->
<!DOCTYPE svg PUBLIC "-//W3C//DTD SVG 1.1//EN" "http://www.w3.org/Graphics/SVG/1.1/DTD/svg11.dtd">
<svg version="1.1" id="图层_1" xmlns="http://www.w3.org/2000/svg" xmlns:xlink="http://www.w3.org/1999/xlink" x="0px" y="0px"
	 viewBox="0 0 14 14" enable-background="new 0 0 14 14" xml:space="preserve">
<rect x="67.1" y="28" fill="none" width="14" height="14"/>
<g>
	<path fill="#FFFFFF" d="M9.5,14h-8C0.7,14,0,13.3,0,12.5V9.7c0-0.3,0.2-0.5,0.5-0.5h2.3c0.3,0,0.5-0.2,0.5-0.5V7.6
		c0-0.3-0.2-0.5-0.5-0.5H0.5C0.3,7.1,0,6.9,0,6.6V4.5C0,3.7,0.7,3,1.5,3h1.8V1.5C3.4,0.7,4.1,0,4.9,0H6c0.8,0,1.5,0.7,1.5,1.5V3h2
		C10.3,3,11,3.7,11,4.5v1.6h1.5c0.8,0,1.5,0.7,1.5,1.5v1.1c0,0.8-0.7,1.5-1.5,1.5H11v2.3C11,13.3,10.3,14,9.5,14z M1,10.2v2.3
		C1,12.8,1.3,13,1.5,13h8c0.3,0,0.5-0.2,0.5-0.5V9.7c0-0.3,0.2-0.5,0.5-0.5h2C12.8,9.2,13,9,13,8.7V7.6c0-0.3-0.2-0.5-0.5-0.5h-2
		c-0.3,0-0.5-0.2-0.5-0.5V4.5C10,4.2,9.8,4,9.5,4H7C6.7,4,6.5,3.8,6.5,3.5v-2C6.5,1.2,6.3,1,6,1H4.9C4.6,1,4.4,1.2,4.4,1.5v2
		C4.4,3.8,4.2,4,3.9,4H1.5C1.3,4,1,4.2,1,4.5v1.6h1.8c0.8,0,1.5,0.7,1.5,1.5v1.1c0,0.8-0.7,1.5-1.5,1.5H1z"/>
</g>
</svg>
