<?xml version="1.0" encoding="utf-8"?>
<!-- Generator: Adobe Illustrator 18.0.0, SVG Export Plug-In . SVG Version: 6.00 Build 0)  -->
<!DOCTYPE svg PUBLIC "-//W3C//DTD SVG 1.1//EN" "http://www.w3.org/Graphics/SVG/1.1/DTD/svg11.dtd">
<svg version="1.1" id="图层_1" xmlns="http://www.w3.org/2000/svg" xmlns:xlink="http://www.w3.org/1999/xlink" x="0px" y="0px"
	 viewBox="0 0 14 14" enable-background="new 0 0 14 14" xml:space="preserve">
<g>
	<path fill="#FFFFFF" d="M12.3,0H1.6C0.7,0,0,0.7,0,1.6v10.7C0,13.3,0.7,14,1.6,14h10.7c0.9,0,1.6-0.7,1.6-1.6V1.6
		C14,0.7,13.2,0,12.3,0L12.3,0z M13,12.4c0,0.2-0.1,0.4-0.2,0.5c-0.1,0.1-0.3,0.2-0.5,0.2H1.6c-0.2,0-0.4-0.1-0.5-0.2
		c-0.1-0.1-0.2-0.3-0.2-0.5V1.6c0-0.2,0.1-0.4,0.2-0.5C1.2,1,1.4,0.9,1.6,0.9h10.7c0.2,0,0.4,0.1,0.5,0.2C12.9,1.3,13,1.4,13,1.6
		V12.4z M13,12.4"/>
	<rect x="0" fill="none" width="14" height="14"/>
	<path fill="#FFFFFF" d="M10.6,2.9H5.2C5,2.5,4.6,2.1,4.1,2.1c-0.7,0-1.2,0.6-1.2,1.2c0,0.7,0.6,1.2,1.2,1.2c0.5,0,1-0.3,1.2-0.8
		h5.4c0.3,0,0.5-0.2,0.5-0.5C11.1,3.1,10.9,2.9,10.6,2.9L10.6,2.9z M4,3.9c-0.3,0-0.5-0.2-0.5-0.5c0-0.3,0.2-0.5,0.5-0.5
		c0.3,0,0.5,0.2,0.5,0.5C4.5,3.6,4.3,3.9,4,3.9L4,3.9z M10.6,10.2H5.2C5,9.7,4.6,9.4,4.1,9.4c-0.7,0-1.2,0.6-1.2,1.2
		c0,0.7,0.6,1.2,1.2,1.2c0.5,0,1-0.3,1.2-0.8h5.4c0.3,0,0.5-0.2,0.5-0.5C11.1,10.4,10.9,10.2,10.6,10.2L10.6,10.2z M4,11.1
		c-0.3,0-0.5-0.2-0.5-0.5c0-0.3,0.2-0.5,0.5-0.5c0.3,0,0.5,0.2,0.5,0.5C4.5,10.9,4.3,11.1,4,11.1L4,11.1z M10.6,6.5h-1
		C9.5,6.1,9,5.8,8.5,5.8c-0.5,0-1,0.3-1.2,0.8H3.3C3,6.5,2.8,6.7,2.8,7c0,0.3,0.2,0.5,0.5,0.5h4.1C7.5,7.9,8,8.2,8.5,8.2
		c0.5,0,1-0.3,1.2-0.8h1c0.3,0,0.5-0.2,0.5-0.5C11.1,6.7,10.9,6.5,10.6,6.5L10.6,6.5z M8.5,7.5C8.2,7.5,8,7.3,8,7
		c0-0.3,0.2-0.5,0.5-0.5C8.8,6.5,9,6.7,9,7C9,7.3,8.8,7.5,8.5,7.5L8.5,7.5z M8.5,7.5"/>
</g>
</svg>
