<?xml version="1.0" encoding="utf-8"?>
<!-- Generator: Adobe Illustrator 18.0.0, SVG Export Plug-In . SVG Version: 6.00 Build 0)  -->
<!DOCTYPE svg PUBLIC "-//W3C//DTD SVG 1.1//EN" "http://www.w3.org/Graphics/SVG/1.1/DTD/svg11.dtd">
<svg version="1.1" id="图层_1" xmlns="http://www.w3.org/2000/svg" xmlns:xlink="http://www.w3.org/1999/xlink" x="0px" y="0px"
	 viewBox="0 0 20 20" enable-background="new 0 0 20 20" xml:space="preserve">
<path fill="#8A54D8" d="M2.9,0h14.3C18.7,0,20,1.3,20,2.9v14.3c0,1.6-1.3,2.9-2.9,2.9H2.9C1.3,20,0,18.7,0,17.1V2.9
	C0,1.3,1.3,0,2.9,0L2.9,0z M5,3.7C4.3,3.7,3.8,4.3,3.8,5S4.3,6.2,5,6.2c0.7,0,1.3-0.6,1.3-1.3S5.7,3.7,5,3.7L5,3.7z M10,3.7
	C9.3,3.7,8.8,4.3,8.8,5S9.3,6.2,10,6.2c0.7,0,1.2-0.6,1.2-1.3S10.7,3.7,10,3.7L10,3.7z M15,3.7c-0.7,0-1.2,0.6-1.2,1.3
	s0.6,1.3,1.2,1.3s1.3-0.6,1.3-1.3S15.7,3.7,15,3.7L15,3.7z M5,8.7c-0.7,0-1.2,0.6-1.2,1.3s0.6,1.3,1.2,1.3h10c0.7,0,1.3-0.6,1.3-1.3
	S15.7,8.7,15,8.7H5z M5,13.8c-0.7,0-1.2,0.6-1.2,1.3s0.6,1.3,1.2,1.3h7.5c0.7,0,1.3-0.6,1.3-1.3s-0.6-1.3-1.3-1.3H5z M5,13.8"/>
</svg>
