<?xml version="1.0" encoding="utf-8"?>
<!-- Generator: Adobe Illustrator 18.0.0, SVG Export Plug-In . SVG Version: 6.00 Build 0)  -->
<!DOCTYPE svg PUBLIC "-//W3C//DTD SVG 1.1//EN" "http://www.w3.org/Graphics/SVG/1.1/DTD/svg11.dtd">
<svg version="1.1" id="图层_1" xmlns="http://www.w3.org/2000/svg" xmlns:xlink="http://www.w3.org/1999/xlink" x="0px" y="0px"
	 viewBox="0 0 14 14" enable-background="new 0 0 14 14" xml:space="preserve">
<g>
	<g>
		<g>
			<path fill="#FFFFFF" d="M10,4H3C2.7,4,2.5,3.7,2.5,3.5C2.5,3.2,2.7,3,3,3h7c0.3,0,0.5,0.2,0.5,0.5C10.5,3.7,10.3,4,10,4L10,4z
				 M7,7H3C2.7,7,2.5,6.8,2.5,6.5C2.5,6.2,2.7,6,3,6h4c0.3,0,0.5,0.2,0.5,0.5C7.5,6.8,7.3,7,7,7L7,7z M5,10H3
				c-0.3,0-0.5-0.2-0.5-0.5C2.5,9.2,2.7,9,3,9h2c0.3,0,0.5,0.2,0.5,0.5C5.5,9.7,5.3,10,5,10L5,10z M5,10"/>
			<path fill="#FFFFFF" d="M13,0H1C0.4,0,0,0.4,0,1v12c0,0.6,0.4,1,1,1h3c0.3,0,0.5-0.2,0.5-0.5S4.2,13,4,13H1V1h12v3.5
				C13,4.8,13.2,5,13.5,5c0.1,0,0.3-0.1,0.4-0.1C13.9,4.8,14,4.6,14,4.5V1C14,0.4,13.6,0,13,0L13,0z M6.5,13.3v0.3c0,0,0-0.1,0-0.1
				C6.5,13.4,6.5,13.4,6.5,13.3L6.5,13.3z M6.5,13.3"/>
			<path fill="#FFFFFF" d="M11.1,6.5l-4.7,4.7l-0.2,2.4c0,0.2,0.2,0.4,0.4,0.4l2.4-0.2l4.7-4.7c0.4-0.4,0.4-1,0-1.4l-1.2-1.2
				C12.1,6.1,11.5,6.1,11.1,6.5L11.1,6.5z M8.6,12.8l-1.3,0.1l0.1-1.3l4.4-4.4L13,8.4L8.6,12.8z M8.6,12.8"/>
		</g>
	</g>
</g>
</svg>
