<?xml version="1.0" encoding="utf-8"?>
<!-- Generator: Adobe Illustrator 18.0.0, SVG Export Plug-In . SVG Version: 6.00 Build 0)  -->
<!DOCTYPE svg PUBLIC "-//W3C//DTD SVG 1.1//EN" "http://www.w3.org/Graphics/SVG/1.1/DTD/svg11.dtd">
<svg version="1.1" id="图层_1" xmlns="http://www.w3.org/2000/svg" xmlns:xlink="http://www.w3.org/1999/xlink" x="0px" y="0px"
	 viewBox="0 0 20 20" enable-background="new 0 0 20 20" xml:space="preserve">
<g>
	<g>
		<path fill="#4A93E8" d="M18.8,6.9c-0.8,0-1.5-0.4-1.8-1.1v0c-0.4-0.7-0.4-1.5,0-2.2c0.3-0.6,0.1-1.3-0.4-1.6l-3.1-1.9
			C13.2,0,12.8,0,12.5,0c-0.3,0.1-0.6,0.3-0.7,0.6c-0.4,0.7-1.1,1.1-1.8,1.1c-0.8,0-1.5-0.4-1.8-1.1C8,0.3,7.8,0.1,7.5,0
			C7.2,0,6.8,0,6.6,0.2L3.4,2C2.9,2.4,2.7,3.1,3,3.7c0.4,0.7,0.4,1.5,0,2.2C2.6,6.5,1.9,6.9,1.2,6.9C0.5,6.9,0,7.5,0,8.1v3.7
			c0,0.7,0.5,1.2,1.2,1.2c0.8,0,1.5,0.4,1.8,1.1c0.4,0.7,0.4,1.5,0,2.2c-0.2,0.3-0.2,0.6-0.1,0.9C3,17.6,3.2,17.8,3.4,18l3.1,1.9
			C6.7,19.9,6.9,20,7.1,20c0.4,0,0.8-0.2,1-0.6c0.4-0.7,1.1-1.1,1.8-1.1c0.8,0,1.5,0.4,1.8,1.1c0.2,0.3,0.4,0.5,0.7,0.6
			c0.3,0.1,0.6,0,0.9-0.1l3.1-1.9c0.6-0.3,0.8-1.1,0.4-1.6c-0.4-0.7-0.4-1.5,0-2.2c0.4-0.7,1.1-1.1,1.8-1.1c0.6,0,1.2-0.5,1.2-1.2
			V8.1C20,7.5,19.5,6.9,18.8,6.9z M10,15.6L10,15.6c-3.1,0-5.6-2.5-5.6-5.6c0-3.1,2.5-5.6,5.6-5.6c3.1,0,5.6,2.5,5.6,5.6
			C15.6,13.1,13.1,15.6,10,15.6z M10,6.9c-1.7,0-3.1,1.4-3.1,3.1c0,1.7,1.4,3.1,3.1,3.1c1.7,0,3.1-1.4,3.1-3.1
			C13.1,8.3,11.7,6.9,10,6.9z"/>
	</g>
</g>
</svg>
