<?xml version="1.0" encoding="utf-8"?>
<!-- Generator: Adobe Illustrator 18.0.0, SVG Export Plug-In . SVG Version: 6.00 Build 0)  -->
<!DOCTYPE svg PUBLIC "-//W3C//DTD SVG 1.1//EN" "http://www.w3.org/Graphics/SVG/1.1/DTD/svg11.dtd">
<svg version="1.1" id="图层_1" xmlns="http://www.w3.org/2000/svg" xmlns:xlink="http://www.w3.org/1999/xlink" x="0px" y="0px"
	 viewBox="0 0 14 14" enable-background="new 0 0 14 14" xml:space="preserve">
<g>
	<path fill="#FFFFFF" d="M9,0H2.4C1.1,0,0,1.1,0,2.4v9.2C0,12.9,1.1,14,2.4,14h9.2c1.3,0,2.4-1.1,2.4-2.4V4.3L9,0z M9.4,1.8L12,4
		h-1.3C10,4,9.4,3.4,9.4,2.7V1.8z M12.9,11.6c0,0.7-0.6,1.3-1.3,1.3H2.4c-0.7,0-1.3-0.6-1.3-1.3V2.4c0-0.7,0.6-1.3,1.3-1.3h5.9v1.6
		c0,1.3,1.1,2.4,2.4,2.4h2.2V11.6z"/>
	<polygon fill="#FFFFFF" points="8.3,5.1 4.1,9.4 7.1,9.4 5.2,12.6 9.9,7.8 6.9,7.8 	"/>
</g>
</svg>
