<?xml version="1.0" encoding="utf-8"?>
<!-- Generator: Adobe Illustrator 18.0.0, SVG Export Plug-In . SVG Version: 6.00 Build 0)  -->
<!DOCTYPE svg PUBLIC "-//W3C//DTD SVG 1.1//EN" "http://www.w3.org/Graphics/SVG/1.1/DTD/svg11.dtd">
<svg version="1.1" id="图层_1" xmlns="http://www.w3.org/2000/svg" xmlns:xlink="http://www.w3.org/1999/xlink" x="0px" y="0px"
	 viewBox="0 0 14 14" enable-background="new 0 0 14 14" xml:space="preserve">
<path fill="#555555" d="M-62.5-0.5C-62.6-0.8-62.6-0.6-62.5-0.5C-62.6-0.6-62.6-0.6-62.5-0.5z"/>
<path fill="#555555" d="M-62.5-0.2c0-0.1,0-0.2,0-0.3C-62.5-0.4-62.5-0.3-62.5-0.2C-62.5-0.3-62.5-0.3-62.5-0.2z"/>
<path fill="#555555" d="M-62.5,0.1c0-0.1,0-0.2,0-0.3C-62.5-0.1-62.5,0-62.5,0.1C-62.5,0-62.5,0.1-62.5,0.1z"/>
<g>
	<path fill="#FFFFFF" d="M13.5,4c-0.3,0-0.6,0.2-0.6,0.6v7c0,0.7-0.6,1.3-1.3,1.3H2.4c-0.7,0-1.3-0.6-1.3-1.3V2.4
		c0-0.7,0.6-1.3,1.3-1.3h6.4c0.3,0,0.6-0.2,0.6-0.6S9.1,0,8.8,0H2.4C1.1,0,0,1.1,0,2.4v9.2C0,12.9,1.1,14,2.4,14h9.2
		c1.3,0,2.4-1.1,2.4-2.4v-7C14,4.3,13.8,4,13.5,4z"/>
	<path fill="#FFFFFF" d="M6.3,6.3c0.3,0,0.6-0.2,0.6-0.6c0-0.3-0.2-0.6-0.6-0.6H2.7c-0.3,0-0.6,0.2-0.6,0.6c0,0.3,0.2,0.6,0.6,0.6
		H6.3z"/>
	<path fill="#FFFFFF" d="M7.9,6.1C8,6.2,8.1,6.3,8.3,6.3s0.3-0.1,0.4-0.2L13.8,1c0.2-0.2,0.2-0.6,0-0.8c-0.2-0.2-0.6-0.2-0.8,0
		L7.9,5.3C7.7,5.6,7.7,5.9,7.9,6.1z"/>
	<path fill="#FFFFFF" d="M2.8,9.2h8.3c0.3,0,0.6-0.2,0.6-0.6s-0.2-0.6-0.6-0.6H2.8c-0.3,0-0.6,0.2-0.6,0.6S2.5,9.2,2.8,9.2z"/>
</g>
</svg>
